HIERARCHY
ROOT ui
{
	 OFFSET 0 0 0
	 CHANNELS 3 XPosition YPosition Z Position
	 EndSite
	 {
	 OFFSET 0 -1 0
	 }
}
ROOT li
{
	 OFFSET 0 0 0
	 CHANNELS 3 XPosition YPosition Z Position
	 EndSite
	 {
	 OFFSET 0 -1 0
	 }
}
ROOT ul
{
	 OFFSET 0 0 0
	 CHANNELS 3 XPosition YPosition Z Position
	 EndSite
	 {
	 OFFSET 0 -1 0
	 }
}
ROOT ll
{
	 OFFSET 0 0 0
	 CHANNELS 3 XPosition YPosition Z Position
	 EndSite
	 {
	 OFFSET 0 -1 0
	 }
}
ROOT tt
{
	 OFFSET 0 0 0
	 CHANNELS 3 XPosition YPosition Z Position
	 EndSite
	 {
	 OFFSET 0 -1 0
	 }
}
ROOT tb
{
	 OFFSET 0 0 0
	 CHANNELS 3 XPosition YPosition Z Position
	 EndSite
	 {
	 OFFSET 0 -1 0
	 }
}
ROOT td
{
	 OFFSET 0 0 0
	 CHANNELS 3 XPosition YPosition Z Position
	 EndSite
	 {
	 OFFSET 0 -1 0
	 }
}
ROOT v
{
	 OFFSET 0 0 0
	 CHANNELS 3 XPosition YPosition Z Position
	 EndSite
	 {
	 OFFSET 0 -1 0
	 }
}
ROOT bn
{
	 OFFSET 0 0 0
	 CHANNELS 3 XPosition YPosition Z Position
	 EndSite
	 {
	 OFFSET 0 -1 0
	 }
}
MOTION
Frames: 29
Frame Time: 0.002
0.0019687089920043944	-9.184979796409607E-4	0		0.431976806640625	-2.32490087890625	0		-1.10288671875	0.020070573806762696	0		-0.7518120727539063	-2.296197998046875	0		1.5305848388671874	-0.4927577209472656	0		3.1194345703125	-0.07410428619384765	0		4.577056640625	0.09872544860839844	0		5.5782734375	0.180619140625	0		-0.42914389038085937	5.85121826171875	0		
0.0018196769952774049	-3.318159878253937E-4	0		0.44995932006835937	-2.31666845703125	0		-1.103027099609375	0.021105642318725585	0		-0.752892578125	-2.29530517578125	0		1.530236083984375	-0.4927913818359375	0		3.11817041015625	-0.08377291870117187	0		4.576947265625	0.09745539855957032	0		5.5810224609375	0.1915518341064453	0		-0.2786222229003906	5.88257958984375	0		
-0.0013492029905319213	-0.0027298579216003416	0		0.4119918212890625	-2.307907958984375	0		-1.108197265625	0.018160633087158203	0		-0.7189829711914062	-2.29978076171875	0		1.526864013671875	-0.49678875732421873	0		3.12806640625	-0.07752154541015625	0		4.57684619140625	0.09623336791992188	0		5.573763671875	0.19417247009277344	0		-0.41066445922851563	5.8625810546875	0		
0.008406389236450195	-0.012277841567993164	0		0.4349421691894531	-2.31175439453125	0		-1.1142796630859375	0.024190984725952148	0		-0.7610056762695312	-2.30053857421875	0		1.52653662109375	-0.4968090515136719	0		3.117825439453125	-0.08504071044921875	0		4.5718232421875	0.10311821746826172	0		5.57781591796875	0.172428466796875	0		-0.42270474243164063	5.853431640625	0		
-0.07862886047363281	1.6706399619579316E-4	0		0.41892453002929686	-2.3152216796875	0		-1.1084761962890626	0.02005399131774902	0		-0.761977783203125	-2.29973828125	0		1.5321436767578125	-0.5028874206542969	0		3.112717041015625	-0.07857088470458984	0		4.57170751953125	0.1020172119140625	0		5.57766064453125	0.16995501708984376	0		-0.42175927734375	5.85512109375	0		
0.0012191909551620484	0.0018224890232086182	0		0.4579114990234375	-2.321296142578125	0		-1.095519287109375	0.0317847900390625	0		-0.7568417358398437	-2.292046875	0		1.534849365234375	-0.49893234252929686	0		3.1233681640625	-0.09323186492919922	0		4.57040869140625	0.08599803924560546	0		5.57749609375	0.16763674926757813	0		-0.27064718627929685	5.88413720703125	0		
0.01093292236328125	-0.006817399978637695	0		0.4491255187988281	-2.3098779296875	0		-1.095694580078125	0.0325988655090332	0		-0.7228007202148438	-2.296730712890625	0		1.5285760498046874	-0.49287240600585935	0		3.135422119140625	-0.06987087249755859	0		4.57346337890625	0.10400859069824218	0		5.58023828125	0.17924830627441407	0		-0.25289569091796876	5.89351318359375	0		
8.385850191116333E-4	0.0027346229553222657	0		0.44317160034179687	-2.31750830078125	0		-1.1090074462890624	0.02250560760498047	0		-0.7626565551757812	-2.2956328125	0		1.5251915283203126	-0.4968373718261719	0		3.102011962890625	-0.08695281982421875	0		4.576158203125	0.09109771728515625	0		5.57714306640625	0.16351084899902343	0		-0.4158434143066406	5.85591650390625	0		
-0.002398756980895996	1.7771799862384795E-4	0		0.44033309936523435	-2.31919384765625	0		-1.109204345703125	0.023206315994262695	0		-0.6935530395507813	-2.302846923828125	0		1.5248572998046874	-0.49683236694335936	0		3.11186767578125	-0.08048250579833985	0		4.57597900390625	0.09029686737060547	0		5.57696240234375	0.1617064514160156	0		-0.28126174926757813	5.87586669921875	0		
0.007275340080261231	-0.009567446708679199	0		0.4214991149902344	-2.32470947265625	0		-1.1094039306640624	0.023846878051757812	0		-0.7662470092773438	-2.29644189453125	0		1.5245325927734374	-0.4968256530761719	0		3.1057275390625	-0.07378614044189453	0		4.56579638671875	0.08968944549560547	0		5.579705078125	0.17382208251953124	0		-0.3991764221191406	5.86673828125	0		
2.292349934577942E-4	0.003854290008544922	0		0.4419215087890625	-2.31372021484375	0		-1.1045535888671876	0.028366106033325195	0		-0.7649271240234375	-2.293960693359375	0		1.5301468505859375	-0.5028923950195312	0		3.1163359375	-0.08825831604003906	0		4.575611328125	0.08890998840332032	0		5.57660888671875	0.15857962036132814	0		-0.26384127807617186	5.8875234375	0		
3.128800168633461E-5	0.004157740116119385	0		0.4152940673828125	-2.311180908203125	0		-1.1047467041015624	0.0288870849609375	0		-0.7655774536132812	-2.293506591796875	0		1.5269735107421876	-0.4928536682128906	0		3.11120703125	-0.0815068359375	0		4.56543115234375	0.08843680572509766	0		5.57643994140625	0.1572338104248047	0		-0.4102918701171875	5.8557080078125	0		
0.006676394939422608	-0.008661301612854003	0		0.46560098266601563	-2.31862841796875	0		-1.0350013427734375	0.02346921730041504	0		-0.7342659301757812	-2.30050537109375	0		1.523644775390625	-0.4968179931640625	0		3.11591259765625	-0.08885247802734375	0		4.5662802734375	0.08988314819335938	0		5.576279296875	0.15601400756835937	0		-0.41042010498046877	5.85806103515625	0		
-0.0033781569004058837	0.0016971360445022583	0		0.4011963195800781	-2.30665380859375	0		-1.1142110595703125	0.02187489128112793	0		-0.7728101806640625	-2.2996708984375	0		1.5233841552734375	-0.4968275451660156	0		3.1067431640625	-0.0870005111694336	0		4.56508740234375	0.08740274810791016	0		5.57612841796875	0.15490599060058594	0		-0.27641314697265623	5.87766015625	0		
0.006321885108947754	-0.008232943534851074	0		0.43655322265625	-2.317976806640625	0		-1.1103270263671876	0.02617893600463867	0		-0.7733073120117188	-2.299363525390625	0		1.5231431884765625	-0.49684637451171876	0		3.117365966796875	-0.10238507843017577	0		4.5649296875	0.08695160675048828	0		5.5759873046875	0.15389772033691407	0		-0.3929061584472656	5.86640771484375	0		
0.009214667320251465	-0.004109278202056885	0		0.42411590576171876	-2.3167119140625	0		-1.177371826171875	0.03535568237304688	0		-0.7587966918945312	-2.302296875	0		1.5318955078125	-0.4989923095703125	0		3.117598876953125	-0.07161827850341797	0		4.5719384765625	0.09844564056396485	0		5.578783203125	0.16672782897949218	0		-0.3781927490234375	5.87643798828125	0		
-8.124489784240722E-4	0.0051527700424194335	0		0.4428271484375	-2.30787744140625	0		-1.0235006713867187	0.03559595108032226	0		-0.7680682373046875	-2.291962158203125	0		1.5316937255859375	-0.49903155517578124	0		3.10623583984375	-0.08768923950195312	0		4.58464453125	0.08589595031738281	0		5.57573681640625	0.15214378356933594	0		-0.42784661865234375	5.86427099609375	0		
-0.003986095905303955	0.0022966070175170898	0		0.41040234375	-2.31239306640625	0		-1.110756591796875	0.026953073501586915	0		-0.774520263671875	-2.298702880859375	0		1.5225372314453125	-0.496959228515625	0		3.10609228515625	-0.0878906021118164	0		4.56962548828125	0.09374726104736328	0		5.575626953125	0.15139012145996095	0		-0.27322012329101564	5.87737646484375	0		
0.005754794120788574	-0.007757627964019775	0		0.46098333740234376	-2.320029052734375	0		-1.1108795166015626	0.027125038146972657	0		-0.7748402709960938	-2.298559326171875	0		1.5223699951171874	-0.4970105285644531	0		3.107786376953125	-0.10110164642333984	0		4.57032177734375	0.07942555236816407	0		5.5755263671875	0.1507193603515625	0		-0.2738335571289062	5.87849072265625	0		
-0.0042281107902526855	0.0024295029640197755	0		0.4097976379394531	-2.312324951171875	0		-1.1109947509765625	0.0272593936920166	0		-0.7771494140625	-2.300422119140625	0		1.5281361083984375	-0.5031453857421875	0		3.100930419921875	-0.08117868041992188	0		4.564291015625	0.085231201171875	0		5.5796162109375	0.13269297790527343	0		-0.25839541625976564	5.88836279296875	0		
0.0055255980491638185	-0.007669633865356446	0		0.44539627075195315	-2.323798828125	0		-1.1111041259765626	0.027360509872436524	0		-0.7654805908203125	-2.306501953125	0		1.527994873046875	-0.5032030334472656	0		3.114692138671875	-0.09051854705810547	0		4.5741845703125	0.08485631561279297	0		5.57534521484375	0.1496183319091797	0		-0.3773028564453125	5.87801513671875	0		
-0.0014051569700241089	0.005441287994384766	0		0.4113525085449219	-2.31034521484375	0		-1.1112093505859375	0.02743374252319336	0		-0.73962353515625	-2.3007978515625	0		1.5219447021484376	-0.497180908203125	0		3.109676025390625	-0.083589111328125	0		4.57408203125	0.08464608001708984	0		5.57108837890625	0.16834405517578124	0		-0.4053974609375	5.85743212890625	0		
-0.004549651145935058	0.0024877140522003172	0		0.43608367919921875	-2.31569482421875	0		-1.1113126220703125	0.027484617233276366	0		-0.7778184814453125	-2.300247314453125	0		1.521820068359375	-0.4972376708984375	0		3.11447314453125	-0.09077788543701172	0		4.569900390625	0.07851927947998047	0		5.57518212890625	0.14879673767089843	0		-0.2729628601074219	5.87866357421875	0		
-0.004653536796569825	0.002484721899032593	0		0.4338762512207031	-2.31768505859375	0		-1.1114156494140626	0.027518173217773438	0		-0.7080999145507813	-2.3081748046875	0		1.515605224609375	-0.5042089233398438	0		3.10539404296875	-0.08876183319091797	0		4.5738798828125	0.08431034851074219	0		5.57510302734375	0.14847764587402343	0		-0.27287271118164064	5.87866943359375	0		
-0.004758148193359375	0.002476258993148804	0		0.40675372314453123	-2.314337890625	0		-1.11151953125	0.02753892707824707	0		-0.7703005981445312	-2.31032080078125	0		1.5274996337890625	-0.5034208984375	0		3.116081787109375	-0.10400068664550781	0		4.55279296875	0.08546669006347657	0		5.56861572265625	0.15015376281738282	0		-0.3758534851074219	5.87706982421875	0		
-0.0018228869438171387	0.005423598766326905	0		0.41954364013671874	-2.318534912109375	0		-1.09254443359375	0.033291343688964845	0		-0.7664007568359374	-2.306370849609375	0		1.5304378662109375	-0.4995060729980469	0		3.116396728515625	-0.07308109283447266	0		4.5636748046875	0.08420894622802734	0		5.57787744140625	0.16173545837402345	0		-0.37583453369140624	5.87706640625	0		
0.007948126792907715	-0.003724874019622803	0		0.44839593505859376	-2.31895068359375	0		-1.098580322265625	0.0383785514831543	0		-0.7665455322265625	-2.30637060546875	0		1.5213521728515624	-0.4974225158691406	0		3.105072998046875	-0.08899566650390625	0		4.5686796875	0.0920490493774414	0		5.5684599609375	0.1497486572265625	0		-0.3909607849121094	5.86826513671875	0		
-0.0020324630737304688	0.005397768974304199	0		0.43530181884765623	-2.31579248046875	0		-1.03685400390625	0.025534894943237303	0		-0.7446700439453126	-2.305673828125	0		1.5212408447265624	-0.49745645141601563	0		3.10496728515625	-0.0890514144897461	0		4.56938525390625	0.07796080017089843	0		5.57479248046875	0.1476531066894531	0		-0.2718452758789062	5.87763134765625	0		
-0.00517610502243042	0.0024267210960388186	0		0.4232706298828125	-2.308646240234375	0		-1.1119359130859374	0.027558921813964844	0		-0.784807861328125	-2.306131103515625	0		1.515037353515625	-0.5044025573730468	0		3.11076708984375	-0.09617868804931641	0		4.57336474609375	0.08384383392333984	0		5.5747177734375	0.14752914428710937	0		-0.40517306518554685	5.85744189453125	0		
